<?xml version="1.0" encoding="UTF-8"?>
<svg xmlns="http://www.w3.org/2000/svg" xmlns:xlink="http://www.w3.org/1999/xlink" viewBox="0 0 30 30" width="30px" height="30px">
<g id="surface151903557">
<path style=" stroke:none;fill-rule:nonzero;fill:rgb(17.647059%,47.843137%,0.784314%);fill-opacity:1;" d="M 15 1.199219 C 7.390625 1.199219 1.199219 7.390625 1.199219 15 C 1.199219 22.609375 7.390625 28.800781 15 28.800781 C 22.609375 28.800781 28.800781 22.609375 28.800781 15 C 28.800781 7.390625 22.609375 1.199219 15 1.199219 Z M 21.742188 12.3125 C 21.75 12.457031 21.75 12.601562 21.75 12.746094 C 21.75 17.136719 18.40625 22.199219 12.292969 22.199219 C 10.417969 22.199219 8.671875 21.648438 7.199219 20.707031 C 7.460938 20.738281 7.722656 20.753906 7.992188 20.753906 C 9.550781 20.753906 10.984375 20.222656 12.121094 19.332031 C 10.664062 19.304688 9.4375 18.339844 9.015625 17.023438 C 9.21875 17.0625 9.425781 17.082031 9.640625 17.082031 C 9.945312 17.082031 10.238281 17.042969 10.515625 16.964844 C 8.996094 16.660156 7.851562 15.316406 7.851562 13.707031 C 7.851562 13.691406 7.851562 13.679688 7.851562 13.664062 C 8.300781 13.914062 8.8125 14.0625 9.355469 14.082031 C 8.464844 13.484375 7.878906 12.46875 7.878906 11.3125 C 7.878906 10.707031 8.042969 10.132812 8.328125 9.644531 C 9.96875 11.652344 12.417969 12.976562 15.179688 13.117188 C 15.121094 12.871094 15.09375 12.617188 15.09375 12.359375 C 15.09375 10.523438 16.578125 9.035156 18.414062 9.035156 C 19.371094 9.035156 20.234375 9.4375 20.839844 10.085938 C 21.597656 9.933594 22.308594 9.660156 22.953125 9.277344 C 22.703125 10.054688 22.175781 10.707031 21.488281 11.117188 C 22.164062 11.035156 22.800781 10.859375 23.398438 10.59375 C 22.953125 11.257812 22.390625 11.847656 21.742188 12.3125 Z M 21.742188 12.3125 "/>
</g>
</svg>
